<svg width="320" height="320" viewBox="0 0 320 320" fill="none" xmlns="http://www.w3.org/2000/svg">
<rect width="320" height="320" fill="white"/>
<path d="M111.571 208.681H72V99.3164H111.571V133.341C115.464 108.674 127.406 96.3405 147.4 96.3405C152.423 96.3405 156.831 97.134 160.624 98.7212C164.449 100.275 167.676 102.656 170.305 105.863C172.966 109.038 175.045 113.055 176.542 117.916C178.072 122.743 179.054 128.431 179.486 134.978C183.079 109.22 195.122 96.3405 215.614 96.3405C221.103 96.3405 225.877 97.2828 229.936 99.1676C233.995 101.052 237.354 103.912 240.016 107.748C242.711 111.584 244.707 116.411 246.004 122.231C247.335 128.05 248 134.895 248 142.765V208.681H208.429V152.684C208.429 144.98 207.281 139.276 204.986 135.573C202.723 131.836 199.23 129.968 194.506 129.968C184.693 129.968 179.786 137.672 179.786 153.081V208.681H140.214V152.684C140.214 144.98 139.067 139.276 136.771 135.573C134.509 131.836 131.016 129.968 126.292 129.968C116.478 129.968 111.571 137.672 111.571 153.081V208.681Z" fill="url(#paint0_linear_3_62)"/>
<path d="M248 214.298H208.429V248H248V214.298Z" fill="url(#paint1_linear_3_62)"/>
<defs>
<linearGradient id="paint0_linear_3_62" x1="72" y1="172.17" x2="248" y2="172.17" gradientUnits="userSpaceOnUse">
<stop stop-color="#16191C"/>
<stop offset="1" stop-color="#151A1E" stop-opacity="0.85"/>
</linearGradient>
<linearGradient id="paint1_linear_3_62" x1="72" y1="172.17" x2="248" y2="172.17" gradientUnits="userSpaceOnUse">
<stop stop-color="#16191C"/>
<stop offset="1" stop-color="#151A1E" stop-opacity="0.85"/>
</linearGradient>
</defs>
</svg>
